<svg xmlns="http://www.w3.org/2000/svg" xmlns:xlink="http://www.w3.org/1999/xlink" width="1920" height="1080" viewBox="0 0 1920 1080">
  <defs>
    <clipPath id="clip-path">
      <rect id="Rectangle_30872" data-name="Rectangle 30872" width="1920" height="1080" fill="#fff"/>
    </clipPath>
    <clipPath id="clip-path-2">
      <rect id="Rectangle_30871" data-name="Rectangle 30871" width="1920" height="1620" fill="#fff"/>
    </clipPath>
  </defs>
  <g id="Mask_Group_55" data-name="Mask Group 55" opacity="0.25" clip-path="url(#clip-path)">
    <g id="Mask_Group_54" data-name="Mask Group 54" clip-path="url(#clip-path-2)">
      <g id="Group_5374" data-name="Group 5374" transform="translate(1762.778 656.778)">
        <path id="Path_49089" data-name="Path 49089" d="M1920.645,838.657l-719.355,415.32a47.993,47.993,0,0,1-48,0L.645,588.493" transform="translate(-1763.423 81.966)" fill="none" stroke="#6f6cff" stroke-linecap="square" stroke-miterlimit="10" stroke-width="1.5"/>
        <path id="Path_49090" data-name="Path 49090" d="M1920.645,877.9l-695.8,401.722a48,48,0,0,1-48,0L.645,600.539" transform="translate(-1763.423 97.117)" fill="none" stroke="#6f6cff" stroke-linecap="square" stroke-miterlimit="10" stroke-width="1.5"/>
        <path id="Path_49091" data-name="Path 49091" d="M1920.645,917.141,1248.4,1305.267a48.009,48.009,0,0,1-48,0L.645,612.583" transform="translate(-1763.423 112.266)" fill="none" stroke="#6f6cff" stroke-linecap="square" stroke-miterlimit="10" stroke-width="1.5"/>
        <path id="Path_49092" data-name="Path 49092" d="M1920.645,956.383l-648.7,374.527a48,48,0,0,1-48,0L.645,624.63" transform="translate(-1763.423 127.418)" fill="none" stroke="#6f6cff" stroke-linecap="square" stroke-miterlimit="10" stroke-width="1.5"/>
        <path id="Path_49093" data-name="Path 49093" d="M1920.645,995.628,1295.5,1356.553a48,48,0,0,1-48,0L.645,636.675" transform="translate(-1763.423 142.568)" fill="none" stroke="#6f6cff" stroke-linecap="square" stroke-miterlimit="10" stroke-width="1.5"/>
        <path id="Path_49094" data-name="Path 49094" d="M1920.645,1034.866,1319.056,1382.2a48,48,0,0,1-48,0L.645,648.721" transform="translate(-1763.423 157.719)" fill="none" stroke="#6f6cff" stroke-linecap="square" stroke-miterlimit="10" stroke-width="1.5"/>
        <path id="Path_49095" data-name="Path 49095" d="M1920.645,1074.111l-578.036,333.731a48,48,0,0,1-48,0L.645,660.766" transform="translate(-1763.423 172.869)" fill="none" stroke="#6f6cff" stroke-linecap="square" stroke-miterlimit="10" stroke-width="1.5"/>
        <path id="Path_49096" data-name="Path 49096" d="M1920.645,1113.351l-554.483,320.132a48,48,0,0,1-48,0L.645,672.811" transform="translate(-1763.423 188.019)" fill="none" stroke="#6f6cff" stroke-linecap="square" stroke-miterlimit="10" stroke-width="1.5"/>
        <path id="Path_49097" data-name="Path 49097" d="M1920.645,1152.595l-530.93,306.534a48,48,0,0,1-48,0L.645,684.858" transform="translate(-1763.423 203.172)" fill="none" stroke="#6f6cff" stroke-linecap="square" stroke-miterlimit="10" stroke-width="1.5"/>
        <path id="Path_49098" data-name="Path 49098" d="M1920.645,1191.836l-507.381,292.935a47.994,47.994,0,0,1-48,0L.645,696.9" transform="translate(-1763.423 218.32)" fill="none" stroke="#6f6cff" stroke-linecap="square" stroke-miterlimit="10" stroke-width="1.5"/>
        <path id="Path_49099" data-name="Path 49099" d="M1920.645,1231.077l-483.824,279.334a47.994,47.994,0,0,1-48,0L.645,708.95" transform="translate(-1763.423 233.474)" fill="none" stroke="#6f6cff" stroke-linecap="square" stroke-miterlimit="10" stroke-width="1.5"/>
        <path id="Path_49100" data-name="Path 49100" d="M1920.645,1270.32,1460.37,1536.06a48,48,0,0,1-48,0L.645,721" transform="translate(-1763.423 248.625)" fill="none" stroke="#6f6cff" stroke-linecap="square" stroke-miterlimit="10" stroke-width="1.5"/>
        <path id="Path_49101" data-name="Path 49101" d="M1920.645,1309.564l-436.722,252.142a48,48,0,0,1-48,0L.645,733.041" transform="translate(-1763.423 263.775)" fill="none" stroke="#6f6cff" stroke-linecap="square" stroke-miterlimit="10" stroke-width="1.5"/>
        <path id="Path_49102" data-name="Path 49102" d="M1920.645,1348.807l-413.166,238.543a48,48,0,0,1-48,0L.645,745.086" transform="translate(-1763.423 278.925)" fill="none" stroke="#6f6cff" stroke-linecap="square" stroke-miterlimit="10" stroke-width="1.5"/>
        <path id="Path_49103" data-name="Path 49103" d="M1920.645,563.959l-884.224,510.51a48.008,48.008,0,0,1-48,0L.645,504.173" transform="translate(-1763.423 -24.09)" fill="none" stroke="#6f6cff" stroke-linecap="square" stroke-miterlimit="10" stroke-width="1.5"/>
        <path id="Path_49104" data-name="Path 49104" d="M1920.645,169.281,683.128,883.766a48,48,0,0,1-48,0L.645,517.444" transform="translate(-1763.423 -445.309)" fill="none" stroke="#6f6cff" stroke-linecap="square" stroke-miterlimit="10" stroke-width="1.5"/>
        <path id="Path_49105" data-name="Path 49105" d="M1920.645,193.374,706.683,894.26a48.009,48.009,0,0,1-48,0L.645,514.34" transform="translate(-1763.423 -415.006)" fill="none" stroke="#6f6cff" stroke-linecap="square" stroke-miterlimit="10" stroke-width="1.5"/>
        <path id="Path_49106" data-name="Path 49106" d="M1920.645,217.465,730.232,904.753a47.994,47.994,0,0,1-48,0L.645,511.236" transform="translate(-1763.423 -384.705)" fill="none" stroke="#6f6cff" stroke-linecap="square" stroke-miterlimit="10" stroke-width="1.5"/>
        <path id="Path_49107" data-name="Path 49107" d="M1920.645,241.557,753.785,915.246a48.009,48.009,0,0,1-48,0L.645,508.128" transform="translate(-1763.423 -354.402)" fill="none" stroke="#6f6cff" stroke-linecap="square" stroke-miterlimit="10" stroke-width="1.5"/>
        <path id="Path_49108" data-name="Path 49108" d="M1920.645,265.648l-1143.3,660.09a48,48,0,0,1-48,0L.645,505.024" transform="translate(-1763.423 -324.101)" fill="none" stroke="#6f6cff" stroke-linecap="square" stroke-miterlimit="10" stroke-width="1.5"/>
        <path id="Path_49109" data-name="Path 49109" d="M1920.645,289.74,800.9,936.229a48,48,0,0,1-48,0L.645,501.917" transform="translate(-1763.423 -293.799)" fill="none" stroke="#6f6cff" stroke-linecap="square" stroke-miterlimit="10" stroke-width="1.5"/>
        <path id="Path_49110" data-name="Path 49110" d="M1920.645,313.83,824.447,946.723a48,48,0,0,1-48,0L.645,498.814" transform="translate(-1763.423 -263.499)" fill="none" stroke="#6f6cff" stroke-linecap="square" stroke-miterlimit="10" stroke-width="1.5"/>
        <path id="Path_49111" data-name="Path 49111" d="M1920.645,337.921,848,957.209a48,48,0,0,1-48,0L.645,495.706" transform="translate(-1763.423 -233.198)" fill="none" stroke="#6f6cff" stroke-linecap="square" stroke-miterlimit="10" stroke-width="1.5"/>
        <path id="Path_49112" data-name="Path 49112" d="M1920.645,362.014,871.553,967.712a48.008,48.008,0,0,1-48,0L.645,492.6" transform="translate(-1763.423 -202.894)" fill="none" stroke="#6f6cff" stroke-linecap="square" stroke-miterlimit="10" stroke-width="1.5"/>
        <path id="Path_49113" data-name="Path 49113" d="M1920.645,386.1,895.1,978.2a48,48,0,0,1-48,0L.645,489.5" transform="translate(-1763.423 -172.594)" fill="none" stroke="#6f6cff" stroke-linecap="square" stroke-miterlimit="10" stroke-width="1.5"/>
        <path id="Path_49114" data-name="Path 49114" d="M1920.645,410.2,918.657,988.7a48,48,0,0,1-48,0L.645,486.392" transform="translate(-1763.423 -142.291)" fill="none" stroke="#6f6cff" stroke-linecap="square" stroke-miterlimit="10" stroke-width="1.5"/>
        <path id="Path_49115" data-name="Path 49115" d="M1920.645,434.288l-978.43,564.9a48,48,0,0,1-48,0L.645,483.282" transform="translate(-1763.423 -111.99)" fill="none" stroke="#6f6cff" stroke-linecap="square" stroke-miterlimit="10" stroke-width="1.5"/>
        <path id="Path_49116" data-name="Path 49116" d="M1920.645,458.379l-954.882,551.3a48,48,0,0,1-48,0L.645,480.182" transform="translate(-1763.423 -81.688)" fill="none" stroke="#6f6cff" stroke-linecap="square" stroke-miterlimit="10" stroke-width="1.5"/>
        <path id="Path_49117" data-name="Path 49117" d="M1920.645,485.476,989.316,1023.181a48,48,0,0,1-48,0L.645,480.082" transform="translate(-1763.423 -54.391)" fill="none" stroke="#6f6cff" stroke-linecap="square" stroke-miterlimit="10" stroke-width="1.5"/>
        <path id="Path_49118" data-name="Path 49118" d="M1920.645,524.717l-907.778,524.109a48,48,0,0,1-48,0L.645,492.128" transform="translate(-1763.423 -39.24)" fill="none" stroke="#6f6cff" stroke-linecap="square" stroke-miterlimit="10" stroke-width="1.5"/>
        <path id="Path_49119" data-name="Path 49119" d="M1920.645.642,518.258,810.315a48,48,0,0,1-48,0L.645,539.183" transform="translate(-1763.423 -657.42)" fill="none" stroke="#6f6cff" stroke-linecap="square" stroke-miterlimit="10" stroke-width="1.5"/>
        <path id="Path_49120" data-name="Path 49120" d="M1920.645,24.733,541.812,820.807a48,48,0,0,1-48,0L.645,536.077" transform="translate(-1763.423 -627.119)" fill="none" stroke="#6f6cff" stroke-linecap="square" stroke-miterlimit="10" stroke-width="1.5"/>
        <path id="Path_49121" data-name="Path 49121" d="M1920.645,48.825,565.365,831.3a48,48,0,0,1-48,0L.645,532.971" transform="translate(-1763.423 -596.816)" fill="none" stroke="#6f6cff" stroke-linecap="square" stroke-miterlimit="10" stroke-width="1.5"/>
        <path id="Path_49122" data-name="Path 49122" d="M1920.645,72.916,588.915,841.793a47.994,47.994,0,0,1-48,0L.645,529.865" transform="translate(-1763.423 -566.515)" fill="none" stroke="#6f6cff" stroke-linecap="square" stroke-miterlimit="10" stroke-width="1.5"/>
        <path id="Path_49123" data-name="Path 49123" d="M1920.645,97.007,612.469,852.285a48,48,0,0,1-48,0L.645,526.761" transform="translate(-1763.423 -536.214)" fill="none" stroke="#6f6cff" stroke-linecap="square" stroke-miterlimit="10" stroke-width="1.5"/>
        <path id="Path_49124" data-name="Path 49124" d="M1920.645,121.1,636.024,862.781a48.013,48.013,0,0,1-48,0L.645,523.656" transform="translate(-1763.423 -505.911)" fill="none" stroke="#6f6cff" stroke-linecap="square" stroke-miterlimit="10" stroke-width="1.5"/>
        <path id="Path_49125" data-name="Path 49125" d="M1920.645,145.189,659.575,873.272a48.008,48.008,0,0,1-48,0L.645,520.549" transform="translate(-1763.423 -475.612)" fill="none" stroke="#6f6cff" stroke-linecap="square" stroke-miterlimit="10" stroke-width="1.5"/>
        <path id="Path_49126" data-name="Path 49126" d="M1920.645,603.2l-860.669,496.91a48,48,0,0,1-48,0L.645,516.218" transform="translate(-1763.423 -8.94)" fill="none" stroke="#6f6cff" stroke-linecap="square" stroke-miterlimit="10" stroke-width="1.5"/>
        <path id="Path_49127" data-name="Path 49127" d="M1920.645,642.447,1083.529,1125.76a48.007,48.007,0,0,1-48,0L.645,528.264" transform="translate(-1763.423 6.211)" fill="none" stroke="#6f6cff" stroke-linecap="square" stroke-miterlimit="10" stroke-width="1.5"/>
        <path id="Path_49128" data-name="Path 49128" d="M1920.645,681.685,1107.08,1151.4a48,48,0,0,1-48,0L.645,540.31" transform="translate(-1763.423 21.362)" fill="none" stroke="#6f6cff" stroke-linecap="square" stroke-miterlimit="10" stroke-width="1.5"/>
        <path id="Path_49129" data-name="Path 49129" d="M1920.645,720.928l-790.012,456.116a48,48,0,0,1-48,0L.645,552.356" transform="translate(-1763.423 36.514)" fill="none" stroke="#6f6cff" stroke-linecap="square" stroke-miterlimit="10" stroke-width="1.5"/>
        <path id="Path_49130" data-name="Path 49130" d="M1920.645,760.173,1154.186,1202.69a48,48,0,0,1-48,0L.645,564.4" transform="translate(-1763.423 51.664)" fill="none" stroke="#6f6cff" stroke-linecap="square" stroke-miterlimit="10" stroke-width="1.5"/>
        <path id="Path_49131" data-name="Path 49131" d="M1920.645,799.415l-742.908,428.919a47.993,47.993,0,0,1-48,0L.645,576.448" transform="translate(-1763.423 66.816)" fill="none" stroke="#6f6cff" stroke-linecap="square" stroke-miterlimit="10" stroke-width="1.5"/>
        <path id="Path_49132" data-name="Path 49132" d="M1920.645,1662.746,1695.9,1792.5a48,48,0,0,1-48,0L.645,841.45" transform="translate(-1763.423 400.129)" fill="none" stroke="#6f6cff" stroke-linecap="square" stroke-miterlimit="10" stroke-width="1.5"/>
        <path id="Path_49133" data-name="Path 49133" d="M1920.645,1701.989l-201.188,116.158a48,48,0,0,1-48,0L.645,853.5" transform="translate(-1763.423 415.281)" fill="none" stroke="#6f6cff" stroke-linecap="square" stroke-miterlimit="10" stroke-width="1.5"/>
        <path id="Path_49134" data-name="Path 49134" d="M1920.645,1741.23l-177.637,102.56a48,48,0,0,1-48,0L.645,865.542" transform="translate(-1763.423 430.432)" fill="none" stroke="#6f6cff" stroke-linecap="square" stroke-miterlimit="10" stroke-width="1.5"/>
        <path id="Path_49135" data-name="Path 49135" d="M1920.645,1780.474l-154.086,88.961a47.992,47.992,0,0,1-48,0L.645,877.587" transform="translate(-1763.423 445.582)" fill="none" stroke="#6f6cff" stroke-linecap="square" stroke-miterlimit="10" stroke-width="1.5"/>
        <path id="Path_49136" data-name="Path 49136" d="M1920.645,1819.715l-130.533,75.365a48,48,0,0,1-48,0L.645,889.633" transform="translate(-1763.423 460.733)" fill="none" stroke="#6f6cff" stroke-linecap="square" stroke-miterlimit="10" stroke-width="1.5"/>
        <path id="Path_49137" data-name="Path 49137" d="M1920.645,1858.961l-106.973,61.762a48,48,0,0,1-48,0L.645,901.677" transform="translate(-1763.423 475.882)" fill="none" stroke="#6f6cff" stroke-linecap="square" stroke-miterlimit="10" stroke-width="1.5"/>
        <path id="Path_49138" data-name="Path 49138" d="M1920.645,1898.2l-83.425,48.165a48,48,0,0,1-48,0L.645,913.724" transform="translate(-1763.423 491.034)" fill="none" stroke="#6f6cff" stroke-linecap="square" stroke-miterlimit="10" stroke-width="1.5"/>
        <path id="Path_49139" data-name="Path 49139" d="M1920.645,1937.442,1860.771,1972a48.009,48.009,0,0,1-48,0L.645,925.768" transform="translate(-1763.423 506.183)" fill="none" stroke="#6f6cff" stroke-linecap="square" stroke-miterlimit="10" stroke-width="1.5"/>
        <path id="Path_49140" data-name="Path 49140" d="M1920.645,1976.685l-36.319,20.97a48.008,48.008,0,0,1-48,0L.645,937.815" transform="translate(-1763.423 521.335)" fill="none" stroke="#6f6cff" stroke-linecap="square" stroke-miterlimit="10" stroke-width="1.5"/>
        <path id="Path_49141" data-name="Path 49141" d="M1920.645,2015.926l-12.772,7.374a48.015,48.015,0,0,1-48,0L.645,949.86" transform="translate(-1763.423 536.485)" fill="none" stroke="#6f6cff" stroke-linecap="square" stroke-miterlimit="10" stroke-width="1.5"/>
        <path id="Path_49142" data-name="Path 49142" d="M1920.645,1388.05l-389.613,224.945a47.986,47.986,0,0,1-48,0L.645,757.13" transform="translate(-1763.423 294.074)" fill="none" stroke="#6f6cff" stroke-linecap="square" stroke-miterlimit="10" stroke-width="1.5"/>
        <path id="Path_49143" data-name="Path 49143" d="M1920.645,1427.292l-366.06,211.346a48,48,0,0,1-48,0L.645,769.177" transform="translate(-1763.423 309.226)" fill="none" stroke="#6f6cff" stroke-linecap="square" stroke-miterlimit="10" stroke-width="1.5"/>
        <path id="Path_49144" data-name="Path 49144" d="M1920.645,1466.534l-342.507,197.747a48,48,0,0,1-48,0L.645,781.222" transform="translate(-1763.423 324.376)" fill="none" stroke="#6f6cff" stroke-linecap="square" stroke-miterlimit="10" stroke-width="1.5"/>
        <path id="Path_49145" data-name="Path 49145" d="M1920.645,1505.777l-318.954,184.149a48,48,0,0,1-48,0L.645,793.268" transform="translate(-1763.423 339.527)" fill="none" stroke="#6f6cff" stroke-linecap="square" stroke-miterlimit="10" stroke-width="1.5"/>
        <path id="Path_49146" data-name="Path 49146" d="M1920.645,1545.019l-295.4,170.552a48.008,48.008,0,0,1-48,0L.645,805.313" transform="translate(-1763.423 354.677)" fill="none" stroke="#6f6cff" stroke-linecap="square" stroke-miterlimit="10" stroke-width="1.5"/>
        <path id="Path_49147" data-name="Path 49147" d="M1920.645,1584.263,1648.8,1741.216a48.009,48.009,0,0,1-48,0L.645,817.359" transform="translate(-1763.423 369.828)" fill="none" stroke="#6f6cff" stroke-linecap="square" stroke-miterlimit="10" stroke-width="1.5"/>
        <path id="Path_49148" data-name="Path 49148" d="M1920.645,1623.5l-248.3,143.355a48.008,48.008,0,0,1-48,0L.645,829.4" transform="translate(-1763.423 384.978)" fill="none" stroke="#6f6cff" stroke-linecap="square" stroke-miterlimit="10" stroke-width="1.5"/>
      </g>
    </g>
  </g>
</svg>
